<?xml version="1.0" encoding="UTF-8"?>
<!DOCTYPE svg PUBLIC "-//W3C//DTD SVG 1.1//EN" "http://www.w3.org/Graphics/SVG/1.1/DTD/svg11.dtd">
<svg xmlns="http://www.w3.org/2000/svg" version="1.1" width="190px" height="105px" style="shape-rendering:geometricPrecision; text-rendering:geometricPrecision; image-rendering:optimizeQuality; fill-rule:evenodd; clip-rule:evenodd" xmlns:xlink="http://www.w3.org/1999/xlink">
<g><path style="opacity:1" fill="#00040a" d="M 178.5,-0.5 C 182.167,-0.5 185.833,-0.5 189.5,-0.5C 189.5,34.5 189.5,69.5 189.5,104.5C 126.167,104.5 62.8333,104.5 -0.5,104.5C -0.5,86.8333 -0.5,69.1667 -0.5,51.5C 0.403972,50.791 0.737305,49.791 0.5,48.5C 4.61575,50.8085 8.44908,52.1419 12,52.5C 13.7506,50.5101 14.7506,48.1768 15,45.5C 17.3423,46.1782 19.6757,45.8448 22,44.5C 22.4935,42.8659 22.6602,41.1992 22.5,39.5C 18.7593,40.4015 16.7593,39.0681 16.5,35.5C 21.036,35.2716 25.036,36.6049 28.5,39.5C 27.7376,39.9106 26.7376,40.0773 25.5,40C 27.1247,40.8525 27.4581,41.8525 26.5,43C 27.6721,43.4186 28.6721,44.0853 29.5,45C 26.5,46 23.5,47 20.5,48C 22.1019,49.6416 23.4352,51.4749 24.5,53.5C 15.7887,59.7116 8.62207,67.3783 3,76.5C 2.33333,77.5 2.33333,78.5 3,79.5C 11.6864,67.9802 21.853,57.9802 33.5,49.5C 34.1323,56.8334 35.9656,63.8334 39,70.5C 43.7076,76.6008 49.8743,78.9342 57.5,77.5C 61.1488,76.7333 64.4822,75.3999 67.5,73.5C 61.9701,75.1246 56.3035,75.7912 50.5,75.5C 43.2876,73.7742 39.4543,69.1076 39,61.5C 38.5034,59.1902 38.3367,56.8568 38.5,54.5C 42.9794,51.6288 45.9794,52.9621 47.5,58.5C 49.7954,57.5682 52.1287,56.7348 54.5,56C 51.603,54.2038 48.603,52.7038 45.5,51.5C 46.1035,48.1143 48.1035,46.2809 51.5,46C 53.0412,44.4207 54.2078,42.5873 55,40.5C 57.0408,41.4231 59.2075,41.7564 61.5,41.5C 61.5486,46.799 63.7152,47.799 68,44.5C 68.4935,42.8659 68.6602,41.1992 68.5,39.5C 66.5,39.5 64.5,39.5 62.5,39.5C 62.2148,37.712 62.5481,36.0453 63.5,34.5C 66.3628,35.2305 69.3628,36.0639 72.5,37C 76.0323,35.8183 79.3657,34.1516 82.5,32C 84.607,30.7365 85.607,28.9032 85.5,26.5C 87.1667,26.5 88.8333,26.5 90.5,26.5C 90.1281,29.0217 90.9614,31.0217 93,32.5C 95.0408,31.5769 97.2075,31.2436 99.5,31.5C 98.7553,28.0696 100.089,26.403 103.5,26.5C 104.772,26.5698 105.938,26.9032 107,27.5C 107.494,29.1341 107.66,30.8008 107.5,32.5C 104.833,32.5 102.167,32.5 99.5,32.5C 99.2606,34.4672 99.5939,36.3005 100.5,38C 102.5,37.3333 104.5,37.3333 106.5,38C 108.135,34.2475 110.969,31.7475 115,30.5C 115.113,28.0261 116.113,26.0261 118,24.5C 118.333,24.8333 118.667,25.1667 119,25.5C 121.254,22.7709 123.754,20.4375 126.5,18.5C 128.778,18.7814 129.945,20.1148 130,22.5C 131.067,23.1905 132.234,23.6905 133.5,24C 133.167,24.3333 132.833,24.6667 132.5,25C 133.416,25.3742 134.25,25.8742 135,26.5C 137.259,24.7538 138.592,22.4205 139,19.5C 139.725,18.9415 140.558,18.6082 141.5,18.5C 143.167,19.8333 144.833,21.1667 146.5,22.5C 149.82,24.3381 152.154,23.5047 153.5,20C 151.285,18.9562 148.952,18.2895 146.5,18C 145.052,13.5402 146.719,11.8735 151.5,13C 152.57,17.2057 155.237,18.539 159.5,17C 160.833,15.3333 160.833,13.6667 159.5,12C 149.737,12.6002 149.07,10.4335 157.5,5.5C 158.425,6.64055 159.259,6.64055 160,5.5C 160.495,7.4727 160.662,9.4727 160.5,11.5C 165.14,10.3499 169.307,8.3499 173,5.5C 173.833,5.66667 174.667,5.83333 175.5,6C 176.103,7.82541 176.77,9.65874 177.5,11.5C 179.644,12.9535 181.477,12.6201 183,10.5C 183.813,8.56429 184.313,6.56429 184.5,4.5C 182.5,4.5 180.5,4.5 178.5,4.5C 178.5,2.83333 178.5,1.16667 178.5,-0.5 Z"/></g>
<g><path style="opacity:1" fill="#010712" d="M 84.5,-0.5 C 115.833,-0.5 147.167,-0.5 178.5,-0.5C 178.5,1.16667 178.5,2.83333 178.5,4.5C 180.5,4.5 182.5,4.5 184.5,4.5C 184.313,6.56429 183.813,8.56429 183,10.5C 181.477,12.6201 179.644,12.9535 177.5,11.5C 176.77,9.65874 176.103,7.82541 175.5,6C 174.667,5.83333 173.833,5.66667 173,5.5C 169.307,8.3499 165.14,10.3499 160.5,11.5C 160.662,9.4727 160.495,7.4727 160,5.5C 159.259,6.64055 158.425,6.64055 157.5,5.5C 149.07,10.4335 149.737,12.6002 159.5,12C 160.833,13.6667 160.833,15.3333 159.5,17C 155.237,18.539 152.57,17.2057 151.5,13C 146.719,11.8735 145.052,13.5402 146.5,18C 148.952,18.2895 151.285,18.9562 153.5,20C 152.154,23.5047 149.82,24.3381 146.5,22.5C 144.833,21.1667 143.167,19.8333 141.5,18.5C 140.558,18.6082 139.725,18.9415 139,19.5C 138.592,22.4205 137.259,24.7538 135,26.5C 134.25,25.8742 133.416,25.3742 132.5,25C 132.833,24.6667 133.167,24.3333 133.5,24C 132.234,23.6905 131.067,23.1905 130,22.5C 129.945,20.1148 128.778,18.7814 126.5,18.5C 123.754,20.4375 121.254,22.7709 119,25.5C 118.667,25.1667 118.333,24.8333 118,24.5C 116.113,26.0261 115.113,28.0261 115,30.5C 110.969,31.7475 108.135,34.2475 106.5,38C 104.5,37.3333 102.5,37.3333 100.5,38C 99.5939,36.3005 99.2606,34.4672 99.5,32.5C 102.167,32.5 104.833,32.5 107.5,32.5C 107.66,30.8008 107.494,29.1341 107,27.5C 105.938,26.9032 104.772,26.5698 103.5,26.5C 100.089,26.403 98.7553,28.0696 99.5,31.5C 97.2075,31.2436 95.0408,31.5769 93,32.5C 90.9614,31.0217 90.1281,29.0217 90.5,26.5C 88.8333,26.5 87.1667,26.5 85.5,26.5C 85.607,28.9032 84.607,30.7365 82.5,32C 79.3657,34.1516 76.0323,35.8183 72.5,37C 69.3628,36.0639 66.3628,35.2305 63.5,34.5C 62.5481,36.0453 62.2148,37.712 62.5,39.5C 64.5,39.5 66.5,39.5 68.5,39.5C 68.6602,41.1992 68.4935,42.8659 68,44.5C 63.7152,47.799 61.5486,46.799 61.5,41.5C 59.2075,41.7564 57.0408,41.4231 55,40.5C 54.2078,42.5873 53.0412,44.4207 51.5,46C 48.1035,46.2809 46.1035,48.1143 45.5,51.5C 48.603,52.7038 51.603,54.2038 54.5,56C 52.1287,56.7348 49.7954,57.5682 47.5,58.5C 45.9794,52.9621 42.9794,51.6288 38.5,54.5C 38.3354,51.4816 38.502,48.4816 39,45.5C 59.6145,32.2758 81.4479,21.2758 104.5,12.5C 103.277,11.3861 101.944,11.2195 100.5,12C 78.7723,19.5305 58.4389,29.6972 39.5,42.5C 40.6463,33.7438 43.6463,25.4105 48.5,17.5C 51.1363,18.9942 52.9696,21.3275 54,24.5C 56.0408,23.5769 58.2075,23.2436 60.5,23.5C 60.33,22.1779 60.6634,21.0113 61.5,20C 58.6492,18.7114 55.6492,18.2114 52.5,18.5C 53.0488,16.0987 53.8822,13.7654 55,11.5C 55.3076,12.3081 55.8076,12.9747 56.5,13.5C 57.7362,12.7542 59.0695,12.4208 60.5,12.5C 62.2471,20.0818 64.9138,20.4151 68.5,13.5C 66.2573,12.5258 63.924,12.1924 61.5,12.5C 60.1729,6.3261 62.5062,4.15944 68.5,6C 69.4144,7.91391 70.9144,9.08057 73,9.5C 75.1248,7.09711 77.7914,5.43044 81,4.5C 83.7276,5.95437 84.8942,8.28771 84.5,11.5C 89.8114,12.0276 92.1447,9.69428 91.5,4.5C 89.1667,4.5 86.8333,4.5 84.5,4.5C 84.5,2.83333 84.5,1.16667 84.5,-0.5 Z"/></g>
<g><path style="opacity:1" fill="#1abbad" d="M 48.5,17.5 C 43.6463,25.4105 40.6463,33.7438 39.5,42.5C 58.4389,29.6972 78.7723,19.5305 100.5,12C 101.944,11.2195 103.277,11.3861 104.5,12.5C 81.4479,21.2758 59.6145,32.2758 39,45.5C 38.502,48.4816 38.3354,51.4816 38.5,54.5C 38.3367,56.8568 38.5034,59.1902 39,61.5C 39.4543,69.1076 43.2876,73.7742 50.5,75.5C 52.8333,76.1667 55.1667,76.8333 57.5,77.5C 49.8743,78.9342 43.7076,76.6008 39,70.5C 35.9656,63.8334 34.1323,56.8334 33.5,49.5C 21.853,57.9802 11.6864,67.9802 3,79.5C 2.33333,78.5 2.33333,77.5 3,76.5C 8.62207,67.3783 15.7887,59.7116 24.5,53.5C 27.2889,50.9337 30.2889,48.6004 33.5,46.5C 35.581,35.924 39.2477,25.924 44.5,16.5C 34.6283,18.4439 24.6283,20.9439 14.5,24C 10.8571,25.8048 8.52374,28.6381 7.5,32.5C 6.65612,28.999 7.98945,26.1657 11.5,24C 20.5148,20.0782 29.8481,17.0782 39.5,15C 44.3331,12.4179 48.9998,9.58453 53.5,6.5C 54.5,6.83333 55.1667,7.5 55.5,8.5C 52.4442,10.9485 50.1108,13.9485 48.5,17.5 Z"/></g>
<g><path style="opacity:1" fill="#020c1d" d="M -0.5,-0.5 C 27.8333,-0.5 56.1667,-0.5 84.5,-0.5C 84.5,1.16667 84.5,2.83333 84.5,4.5C 86.8333,4.5 89.1667,4.5 91.5,4.5C 92.1447,9.69428 89.8114,12.0276 84.5,11.5C 84.8942,8.28771 83.7276,5.95437 81,4.5C 77.7914,5.43044 75.1248,7.09711 73,9.5C 70.9144,9.08057 69.4144,7.91391 68.5,6C 62.5062,4.15944 60.1729,6.3261 61.5,12.5C 63.924,12.1924 66.2573,12.5258 68.5,13.5C 64.9138,20.4151 62.2471,20.0818 60.5,12.5C 59.0695,12.4208 57.7362,12.7542 56.5,13.5C 55.8076,12.9747 55.3076,12.3081 55,11.5C 53.8822,13.7654 53.0488,16.0987 52.5,18.5C 55.6492,18.2114 58.6492,18.7114 61.5,20C 60.6634,21.0113 60.33,22.1779 60.5,23.5C 58.2075,23.2436 56.0408,23.5769 54,24.5C 52.9696,21.3275 51.1363,18.9942 48.5,17.5C 50.1108,13.9485 52.4442,10.9485 55.5,8.5C 55.1667,7.5 54.5,6.83333 53.5,6.5C 48.9998,9.58453 44.3331,12.4179 39.5,15C 29.8481,17.0782 20.5148,20.0782 11.5,24C 7.98945,26.1657 6.65612,28.999 7.5,32.5C 10.1667,32.5 12.8333,32.5 15.5,32.5C 15.263,35.2399 13.763,36.9066 11,37.5C 8.83917,36.546 6.6725,35.546 4.5,34.5C 2.7927,34.7284 1.12603,35.0617 -0.5,35.5C -0.5,23.5 -0.5,11.5 -0.5,-0.5 Z"/></g>
<g><path style="opacity:1" fill="#010916" d="M 24.5,53.5 C 23.4352,51.4749 22.1019,49.6416 20.5,48C 23.5,47 26.5,46 29.5,45C 28.6721,44.0853 27.6721,43.4186 26.5,43C 27.4581,41.8525 27.1247,40.8525 25.5,40C 26.7376,40.0773 27.7376,39.9106 28.5,39.5C 25.036,36.6049 21.036,35.2716 16.5,35.5C 16.7593,39.0681 18.7593,40.4015 22.5,39.5C 22.6602,41.1992 22.4935,42.8659 22,44.5C 19.6757,45.8448 17.3423,46.1782 15,45.5C 14.7506,48.1768 13.7506,50.5101 12,52.5C 8.44908,52.1419 4.61575,50.8085 0.5,48.5C 0.737305,49.791 0.403972,50.791 -0.5,51.5C -0.5,46.1667 -0.5,40.8333 -0.5,35.5C 1.12603,35.0617 2.7927,34.7284 4.5,34.5C 6.6725,35.546 8.83917,36.546 11,37.5C 13.763,36.9066 15.263,35.2399 15.5,32.5C 12.8333,32.5 10.1667,32.5 7.5,32.5C 8.52374,28.6381 10.8571,25.8048 14.5,24C 24.6283,20.9439 34.6283,18.4439 44.5,16.5C 39.2477,25.924 35.581,35.924 33.5,46.5C 30.2889,48.6004 27.2889,50.9337 24.5,53.5 Z"/></g>
<g><path style="opacity:1" fill="#1cccbb" d="M 133.5,52.5 C 125.35,51.5073 117.017,51.1739 108.5,51.5C 108.5,49.8333 108.5,48.1667 108.5,46.5C 117.682,46.8266 126.682,46.4933 135.5,45.5C 137.711,40.2108 141.211,39.2108 146,42.5C 147.121,47.2103 145.288,49.877 140.5,50.5C 138.373,64.7936 130.539,74.4603 117,79.5C 114.888,78.392 113.054,76.892 111.5,75C 123.059,71.608 130.392,64.108 133.5,52.5 Z"/></g>
<g><path style="opacity:1" fill="#0b1a1b" d="M 139.5,42.5 C 143.161,42.3501 144.161,43.8501 142.5,47C 138.707,47.4866 137.707,45.9866 139.5,42.5 Z"/></g>
<g><path style="opacity:1" fill="#1ed5c2" d="M 153.5,46.5 C 164.167,46.5 174.833,46.5 185.5,46.5C 185.5,56.8333 185.5,67.1667 185.5,77.5C 180.246,76.4758 174.913,75.8091 169.5,75.5C 165.435,75.5112 161.768,76.1778 158.5,77.5C 156.833,77.5 155.167,77.5 153.5,77.5C 153.5,67.1667 153.5,56.8333 153.5,46.5 Z"/></g>
<g><path style="opacity:1" fill="#12897f" d="M 153.5,46.5 C 153.5,56.8333 153.5,67.1667 153.5,77.5C 155.167,77.5 156.833,77.5 158.5,77.5C 158.5,77.8333 158.5,78.1667 158.5,78.5C 156.5,78.5 154.5,78.5 152.5,78.5C 152.172,67.6536 152.506,56.9869 153.5,46.5 Z"/></g>
<g><path style="opacity:1" fill="#0c544f" d="M 135.5,45.5 C 126.682,46.4933 117.682,46.8266 108.5,46.5C 108.5,48.1667 108.5,49.8333 108.5,51.5C 117.017,51.1739 125.35,51.5073 133.5,52.5C 124.833,52.5 116.167,52.5 107.5,52.5C 107.5,50.1667 107.5,47.8333 107.5,45.5C 116.833,45.5 126.167,45.5 135.5,45.5 Z"/></g>
<g><path style="opacity:1" fill="#000207" d="M 159.5,52.5 C 166.167,52.5 172.833,52.5 179.5,52.5C 179.5,58.1667 179.5,63.8333 179.5,69.5C 172.833,69.5 166.167,69.5 159.5,69.5C 159.5,63.8333 159.5,58.1667 159.5,52.5 Z"/></g>
<g><path style="opacity:1" fill="#0c5c58" d="M 185.5,46.5 C 186.494,56.9869 186.828,67.6536 186.5,78.5C 180.88,77.6376 175.213,76.9709 169.5,76.5C 165.573,76.5804 161.907,77.2471 158.5,78.5C 158.5,78.1667 158.5,77.8333 158.5,77.5C 161.768,76.1778 165.435,75.5112 169.5,75.5C 174.913,75.8091 180.246,76.4758 185.5,77.5C 185.5,67.1667 185.5,56.8333 185.5,46.5 Z"/></g>
<g><path style="opacity:1" fill="#0e6761" d="M 158.5,52.5 C 165.648,51.5084 172.981,51.175 180.5,51.5C 180.823,58.0221 180.49,64.3554 179.5,70.5C 179.5,70.1667 179.5,69.8333 179.5,69.5C 179.5,63.8333 179.5,58.1667 179.5,52.5C 172.833,52.5 166.167,52.5 159.5,52.5C 159.167,52.5 158.833,52.5 158.5,52.5 Z"/></g>
<g><path style="opacity:1" fill="#10776f" d="M 75.5,69.5 C 76.5736,68.1154 77.9069,66.9487 79.5,66C 80.1667,65.3333 80.8333,65.3333 81.5,66C 79.9366,67.9473 77.9366,69.114 75.5,69.5 Z"/></g>
<g><path style="opacity:1" fill="#073b3a" d="M 158.5,52.5 C 158.833,52.5 159.167,52.5 159.5,52.5C 159.5,58.1667 159.5,63.8333 159.5,69.5C 166.167,69.5 172.833,69.5 179.5,69.5C 179.5,69.8333 179.5,70.1667 179.5,70.5C 172.5,70.5 165.5,70.5 158.5,70.5C 158.5,64.5 158.5,58.5 158.5,52.5 Z"/></g>
<g><path style="opacity:1" fill="#10766e" d="M 75.5,69.5 C 73.4208,71.873 70.7541,73.2064 67.5,73.5C 69.8485,71.659 72.5152,70.3257 75.5,69.5 Z"/></g>
<g><path style="opacity:1" fill="#0e6963" d="M 67.5,73.5 C 64.4822,75.3999 61.1488,76.7333 57.5,77.5C 55.1667,76.8333 52.8333,76.1667 50.5,75.5C 56.3035,75.7912 61.9701,75.1246 67.5,73.5 Z"/></g>
<g><path style="opacity:1" fill="#15968a" d="M 78.5,78.5 C 84.8798,78.3928 91.2131,78.8928 97.5,80C 90.8333,80.6667 84.1667,80.6667 77.5,80C 78.056,79.6174 78.3893,79.1174 78.5,78.5 Z"/></g>
</svg>
